<svg id="Layer_1" enable-background="new 0 0 43.833 34.956" height="300" viewBox="0 0 43.833 34.956" width="300" xmlns="http://www.w3.org/2000/svg" version="1.1" xmlns:xlink="http://www.w3.org/1999/xlink" xmlns:svgjs="http://svgjs.dev/svgjs"><g width="100%" height="100%" transform="matrix(1,0,0,1,0,0)"><g><path d="m14.083 23.958c0-7.275 5.898-13.173 13.173-13.173s13.173 5.898 13.173 13.173c0 4.599-2.36 8.642-5.931 10.998h3.815c3.036 0 5.519-2.484 5.519-5.519v-14.328c0-4.011-3.164-7.318-7.12-7.552-.018-.047-.032-.094-.054-.14l-2.776-6.058c-.377-.828-1.205-1.359-2.116-1.359h-8.983c-.911 0-1.738.531-2.117 1.359l-2.776 6.058c-.019.042-.032.084-.048.126h-2.014v-1.96h-8.417v1.968c-4.09.084-7.411 3.449-7.411 7.558v14.328c0 3.036 2.484 5.519 5.519 5.519h14.495c-3.571-2.356-5.931-6.399-5.931-10.998zm-5.494-14.5h6.063v2.5h-6.063z" fill="#77894d" fill-opacity="1" data-original-color="#000000ff" stroke="none" stroke-opacity="1"/><path d="m27.257 34.132c5.609 0 10.173-4.564 10.173-10.173s-4.563-10.173-10.173-10.173-10.174 4.564-10.174 10.173 4.563 10.173 10.174 10.173z" fill="#77894d" fill-opacity="1" data-original-color="#000000ff" stroke="none" stroke-opacity="1"/></g></g></svg>