<svg id="Layer_1" enable-background="new 0 0 53 53" viewBox="0 0 53 53" xmlns="http://www.w3.org/2000/svg" width="300" height="300" version="1.1" xmlns:xlink="http://www.w3.org/1999/xlink" xmlns:svgjs="http://svgjs.dev/svgjs"><g width="100%" height="100%" transform="matrix(1,0,0,1,0,0)"><g><g><g><g><g><path d="m39.2588387 45.1169548c-1.5419922 0-2.9902344-.6000977-4.0800781-1.6899414l-8.5107422-8.5107422c-1.0898438-1.0893555-1.6894531-2.5380859-1.6894531-4.0795918 0-1.5410156.5996094-2.9897461 1.6894531-4.0791016l9.1347656-9.1342773c.9453125-.9453125 2.2011719-1.4658203 3.5380859-1.4658203s2.59375.5205078 3.5390625 1.4658203l7.2890625 7.2890625c1.9511719 1.9511719 1.9511719 5.1254883 0 7.0766602l-1.7216797 1.7216816.1787109.1787109c1.1708984 1.1713867 1.1708984 3.0776367 0 4.25l-5.2880859 5.2875977c-1.0898437 1.0898437-2.5380859 1.6899414-4.0791015 1.6899414zm.0820312-27.4594746c-.9355469 0-1.8154297.3642578-2.4775391 1.0263672l-9.1347656 9.1342773c-.8066406.8061523-1.25 1.878418-1.25 3.0185547 0 1.140625.4433594 2.2128925 1.25 3.0190449l8.5107422 8.5107422c.8066406.8066406 1.8789062 1.2504883 3.0195312 1.2504883 1.1396484 0 2.2119141-.4438477 3.0185547-1.2504883l5.2880859-5.2875977c.5859375-.5869141.5859375-1.5419922 0-2.1289062l-.7089844-.7089844c-.2929688-.2929688-.2929688-.7675781 0-1.0605469l2.2519531-2.251955c1.3662109-1.3662109 1.3662109-3.5893555 0-4.9555664l-7.2890625-7.2890625c-.6621092-.6621093-1.5419921-1.0263672-2.4785155-1.0263672z" fill="#77894d" fill-opacity="1" data-original-color="#000000ff" stroke="none" stroke-opacity="1"/></g></g><g><g><path d="m45.349659 32.3737907c-.2021484 0-.4013672-.0761719-.5439453-.230957-.2734375-.2973652-.2861328-.7373066.0019531-1.020998.0126953-.0117188.0722656-.065918.0849609-.0766602l.8808594-.8789062c.2929688-.2929688.7675781-.2929688 1.0605469 0s.2929688.7675781 0 1.0605469l-.8701172.8701191c-.0136719.0131836-.0791016.0732422-.09375.0854492-.1464844.1264648-.334961.1914062-.5205078.1914062z" fill="#77894d" fill-opacity="1" data-original-color="#000000ff" stroke="none" stroke-opacity="1"/></g></g><g><g><path d="m38.6641121 29.8664646c-.1923828 0-.3837891-.0732422-.5302734-.2197266l-1.7597656-1.7597656c-.7216797-.7148438-1.1201172-1.6708984-1.1201172-2.6899414s.3984375-1.9755859 1.1220703-2.6933594l.8681641-.8671875c.2939453-.2939453.7685547-.2919922 1.0605469 0 .2929688.2929688.2929688.7680664 0 1.0605469l-.8701172.8696289c-.4394531.4360352-.6806641 1.0141602-.6806641 1.6303711 0 .6157227.2412109 1.1933594.6787109 1.6269531l1.7617188 1.762207c.2929688.2929688.2929688.7675781 0 1.0605469-.1464844.1464844-.3378907.2197266-.5302735.2197266z" fill="#77894d" fill-opacity="1" data-original-color="#000000ff" stroke="none" stroke-opacity="1"/></g></g><g><g><path d="m42.1367683 39.2902946c-.1923828 0-.3837891-.0732422-.5302734-.2197266l-3.9726562-3.972168c-1.6816406-1.6826172-1.6816406-4.4199238 0-6.102541s4.4199219-1.6826172 6.1035156 0l4.6787109 4.6787128c.2929688.2929688.2929688.7675781 0 1.0605469s-.7675781.2929688-1.0605469 0l-4.6787109-4.6787128c-1.0976562-1.0976562-2.8847656-1.0976562-3.9824219 0s-1.0976562 2.883791 0 3.9814472l3.9726562 3.972168c.2929688.2929688.2929688.7675781 0 1.0605469-.1464843.1464845-.3378905.2197266-.5302734.2197266z" fill="#77894d" fill-opacity="1" data-original-color="#000000ff" stroke="none" stroke-opacity="1"/></g></g><g><g><path d="m29.3906746 50.4065056c-.4960938 0-.9921875-.1889648-1.3701172-.5668945l-8.1767578-8.1767578c-.3662109-.3652344-.5673828-.8520508-.5673828-1.3696289s.2011719-1.0043945.5673828-1.3701172l5.1054688-5.1054688c.7324219-.7324219 2.0078125-.7324219 2.7402344 0l8.1767578 8.1762695c.7558594.7553711.7558594 1.9848633 0 2.7402344l-5.1054688 5.1054688c-.3779297.3779296-.8740235.5668945-1.3701172.5668945zm-3.0712891-15.6567383c-.1171875 0-.2265625.0458984-.3095703.128418l-5.1054688 5.1054688c-.0830078.0825195-.1279297.1928711-.1279297.3095703s.0449219.2265625.1279297.3085938l8.1767578 8.1772461c.1699219.1708984.4492188.1708984.6191406 0l5.1054688-5.1054688c.1708984-.1708984.1708984-.4482422 0-.6191406l-8.1767578-8.1762695c-.0830078-.0825197-.1923828-.1284181-.3095703-.1284181z" fill="#77894d" fill-opacity="1" data-original-color="#000000ff" stroke="none" stroke-opacity="1"/></g></g><g><g><path d="m38.5039558 41.3195915c-.1923828 0-.3837891-.0732422-.5302734-.2197266-1.0712891-1.0717773-1.0683594-2.8173828.0058594-3.8916016 1.0722656-1.0712891 2.8154297-1.0703125 3.8857422 0 .2929688.2924805.2929688.7675781 0 1.0605469-.2929688.2919922-.7675781.2939453-1.0605469 0-.4853516-.4853516-1.2773438-.4873047-1.7646484 0-.4892578.4897461-.4921875 1.2836914-.0058594 1.7705078.2929688.2929688.2929688.7680664 0 1.0605469-.1464844.1464844-.3388672.2197266-.5302735.2197266z" fill="#77894d" fill-opacity="1" data-original-color="#000000ff" stroke="none" stroke-opacity="1"/></g></g></g><g><g><path d="m29.4170418 45.9939079c-.6132812 0-1.2255859-.2329102-1.6914062-.6992188-.9365234-.9370117-.9394531-2.4575195-.0078125-3.3901367.4501953-.4506836 1.0488281-.6987305 1.6865234-.6987305h.0117188c.6386719.003418 1.2392578.2543945 1.6914062.7070312.4511719.4506836.7001953 1.0512695.7001953 1.6914062 0 .6386719-.2490234 1.2392578-.7001953 1.690918-.4658203.4658205-1.078125.6987306-1.6904297.6987306zm-1.1689453-3.559082.5302734.5302734c-.3476562.3476562-.34375.9169922.0078125 1.269043.3427734.3422852.9199219.3413086 1.2607422 0 .1679688-.168457.2607422-.3916016.2607422-.6298828 0-.2387695-.0927734-.4628906-.2607422-.6303711-.1708984-.171875-.3974609-.2666016-.6376953-.2680664-.0019531 0-.0029297 0-.0048828 0-.2363281 0-.4589844.0917969-.6259766.2592773z" fill="#77894d" fill-opacity="1" data-original-color="#000000ff" stroke="none" stroke-opacity="1"/></g></g></g><g><g><path d="m19.8936043 29.2971287c-.9521484 0-1.9169922-.2353516-2.8056641-.7319336l-10.5058603-5.8730469c-1.3447266-.7519531-2.3164062-1.9829102-2.7363279-3.4658203-.4189453-1.4824219-.2353516-3.0400391.5166013-4.385253l3.6484375-6.5273438c.8076172-1.4462891 2.6445312-1.9633789 4.0888672-1.1572266l.2207031.1235352 1.1884766-2.125c1.3457031-2.4091799 4.4023447-3.2719727 6.8095713-1.9267581l8.9980469 5.0302734c1.1660156.6523438 2.0097656 1.7197266 2.3730469 3.0058594.3642578 1.2866211.2050781 2.637207-.4472656 3.8041992l-6.3037109 11.275878c-1.0556642 1.888184-3.0214845 2.9526371-5.044922 2.9526371zm-9.2568369-21.0219717c-.5283203 0-1.0419922.2773438-1.3173828.7700195l-3.6484375 6.527832c-.5556641.9956045-.6914062 2.1479483-.3818359 3.2451162.3105469 1.0976562 1.0292969 2.0083008 2.0253906 2.5644531l10.5058603 5.8730469c2.0556641 1.1494141 4.6611328.4101562 5.8095703-1.6430664l6.3037109-11.2763662c.4560547-.8168945.5673828-1.7626953.3125-2.6630859-.2548828-.9008789-.8447266-1.6484375-1.6621094-2.1049805l-8.9980469-5.0302734c-1.6845703-.9423831-3.8251963-.3374023-4.7685556 1.3491211l-1.5537109 2.7792969c-.0966797.1738281-.2587891.3017578-.4501953.355957-.1914062.0546875-.3964844.0302734-.5703125-.0668945l-.875-.4892578c-.2314453-.1293946-.4833984-.190918-.7314453-.190918z" fill="#77894d" fill-opacity="1" data-original-color="#000000ff" stroke="none" stroke-opacity="1"/></g></g><g><g><path d="m15.1328611 10.3942976c-.1074219 0-.2138672-.0239258-.3115234-.0761719-.3613281-.1923828-.5322266-.5791016-.3457031-.9433594l.6679688.3417969-.640625-.3955078.6455078-1.1689453c.2001953-.3618164.6572266-.4926758 1.0195322-.2915039.3623047.2011719.4921875.6577148.2910156 1.0200195l-.5996103 1.0800781c-.1445313.2607422-.4384766.4335938-.7265626.4335938z" fill="#77894d" fill-opacity="1" data-original-color="#000000ff" stroke="none" stroke-opacity="1"/></g></g><g><g><path d="m23.0674324 17.8005466c-.6445312 0-1.28125-.1655273-1.8603516-.4897461l-2.1679688-1.2089844c-.3613281-.2021475-.4912109-.6586905-.2900391-1.0205069.2021484-.3613281.6591797-.4931641 1.0205078-.2900391l2.1699219 1.20996c.5419922.3032227 1.1650391.378418 1.7587891.2109375.5908203-.1669922 1.0820312-.5546865 1.3808594-1.0908194l.5996094-1.0791016c.2001953-.3623047.6582031-.4931641 1.0195312-.2915039.3623047.2011719.4921875.6577148.2910156 1.0200195l-.5996094 1.0800781c-.4951172.8881826-1.3066406 1.5288076-2.2841797 1.8051748-.3427733.09668-.6914061.1445315-1.0380858.1445315z" fill="#77894d" fill-opacity="1" data-original-color="#000000ff" stroke="none" stroke-opacity="1"/></g></g><g><g><path d="m16.0264168 18.610117c-.711915 0-1.4335947-.1762695-2.0986338-.5473633l-4.9033203-2.74121c-.3613281-.2021484-.4902344-.6591797-.2880859-1.0209961.2021484-.3608398.6591797-.4892578 1.0205078-.2885742l4.9033203 2.74121c1.3535166.7563477 3.0732431.2719727 3.8320322-1.0839834.7568359-1.3549805.2705078-3.0737305-1.0849609-3.8310547l-5.7753916-3.2285156c-.3613281-.2021484-.4902344-.6591797-.2880859-1.0205078.2011719-.3618164.6601562-.4892578 1.0205078-.2890625l5.7753916 3.2285156c2.0761719 1.1611328 2.8212891 3.7954102 1.6621094 5.8725576-.7900392 1.4125976-2.2617188 2.2089844-3.7753907 2.2089844z" fill="#77894d" fill-opacity="1" data-original-color="#000000ff" stroke="none" stroke-opacity="1"/></g></g><g><g><path d="m13.3945799 37.2136345c-.3193359 0-.6425781-.0791016-.9404297-.2456055l-10.09375-5.64258c-.451172-.2524414-.7773439-.6660156-.9189454-1.1635742-.140625-.4985352-.0791016-1.0214844.1738281-1.4731445l3.5224609-6.3022461c.5214844-.9331055 1.703125-1.265625 2.6367188-.7460938l10.093751 5.6425781c.4511719.2524414.7773438.6660156.9189453 1.1635742.140625.4980469.0791016 1.0214844-.1738281 1.4726562l-3.5234385 6.3032246c-.3544921.6337891-1.0146484.991211-1.6953124.991211zm-6.5644531-14.3193379c-.1542969 0-.3037109.0810547-.3837891.2241211l-3.5224607 6.3022461c-.0566406.1025391-.0703125.2202148-.0390625.3325195.0322266.1123047.1054688.2055664.2080078.2626953l10.0927734 5.64258c.2099609.1166992.4775391.0410156.5957031-.168457l3.5234385-6.3027363c.0566406-.1020508.0703125-.2197266.0390625-.3320312-.0322266-.1123047-.1054688-.2055664-.2080078-.2626953l-10.093751-5.6425781c-.067383-.0375976-.1406252-.0556641-.2119142-.0556641z" fill="#77894d" fill-opacity="1" data-original-color="#000000ff" stroke="none" stroke-opacity="1"/></g></g><g><g><path d="m9.3936033 19.7170506c-.4521484 0-.9101562-.1118164-1.3330078-.3476562-.3613281-.2021484-.4902344-.6586914-.2880859-1.0205078.2001953-.3603516.6552734-.4921875 1.0205078-.2890625.5986328.3354492 1.3642578.1176758 1.7021484-.487793.1621094-.2895508.2011719-.6259766.1113281-.9467773-.0908203-.3212891-.3007812-.5878906-.5917969-.7504873-.3613281-.2021484-.4902344-.6591797-.2880859-1.0209961.2011719-.3613281.6582031-.4882812 1.0205078-.2885742.6416016.3588867 1.1044922.9462891 1.3037109 1.6542959.1982422.7055664.1103516 1.4462891-.2470703 2.0849609-.5048827.9028319-1.4443359 1.4125976-2.4101562 1.4125976z" fill="#77894d" fill-opacity="1" data-original-color="#000000ff" stroke="none" stroke-opacity="1"/></g></g><g><g><path d="m7.9863768 30.6784763c-.3984375 0-.8007812-.0986328-1.1728516-.3061523-1.1503906-.6435547-1.5634766-2.1030273-.9208984-3.2543945.3134766-.559082.8251953-.9619141 1.4423828-1.1352539.6123047-.1704102 1.2568359-.0957031 1.8134766.2143555.5585938.3125.9638672.8222656 1.1396484 1.4355469.1777344.6166992.1035156 1.2646484-.2099609 1.8242188v.0004883c-.4365235.7812498-1.2519532 1.2211912-2.0917969 1.2211912zm-.0029297-3.2851562c-.0810547 0-.1630859.0112305-.2441406.0336914-.2294922.0644531-.4208984.2148438-.5371094.4223633-.2353516.421875-.078125.9780273.34375 1.2133789.4375.2451172.9833984.0908203 1.2236328-.3374023.1162109-.2080078.1435547-.4487305.0771484-.6777344-.0664062-.230957-.21875-.4228516-.4306641-.5410156-.133789-.0751954-.2822265-.1132813-.4326171-.1132813zm1.4404297 1.6977539h.0097656z" fill="#77894d" fill-opacity="1" data-original-color="#000000ff" stroke="none" stroke-opacity="1"/></g></g></g></g></svg>