<svg xmlns="http://www.w3.org/2000/svg" id="Icons" viewBox="0 0 60 60" width="300" height="300" version="1.1" xmlns:xlink="http://www.w3.org/1999/xlink" xmlns:svgjs="http://svgjs.dev/svgjs"><g width="100%" height="100%" transform="matrix(1,0,0,1,0,0)"><path d="M53,0H7A3.006,3.006,0,0,0,4,3V15.812a5.012,5.012,0,0,0-2.537,8.445L4,26.793V57a3.006,3.006,0,0,0,3,3H53A3.006,3.006,0,0,0,56,57V3A3.006,3.006,0,0,0,53,0ZM2.877,18.6a2.988,2.988,0,0,1,3.834-.345L2.538,22.425A3.009,3.009,0,0,1,2.877,18.6Zm28.4,26.963L32.282,47.5a.334.334,0,0,1-.45.454l-1.944-1.011A2.689,2.689,0,0,1,31.273,45.56Zm-3.169.454L24.609,44.2l3.917-3.917,1.819,3.5A4.843,4.843,0,0,0,28.1,46.014ZM8.158,25.289,24.422,41.553,23.01,42.966,6.741,26.705Zm17.678,14.85L9.572,23.875l1.416-1.415L27.255,38.72ZM5.327,25.292,3.913,23.878l4.246-4.246,1.414,1.414ZM54,57A1,1,0,0,1,53,58H7a1,1,0,0,1-1-1V28.792L22.315,45.1h0a3.013,3.013,0,0,0,.736.538l7.858,4.089a2.334,2.334,0,0,0,3.147-3.149l-4-7.686a2.986,2.986,0,0,0-.541-.738L8.542,17.188A4.9,4.9,0,0,0,6,15.825V3A1,1,0,0,1,7,2H53A1,1,0,0,1,54,3Z" fill="#77894d" fill-opacity="1" data-original-color="#000000ff" stroke="none" stroke-opacity="1"/><path d="M47,8H13a1,1,0,0,0,0,2H47a1,1,0,0,0,0-2Z" fill="#77894d" fill-opacity="1" data-original-color="#000000ff" stroke="none" stroke-opacity="1"/><path d="M47,14H13a1,1,0,0,0,0,2H47a1,1,0,0,0,0-2Z" fill="#77894d" fill-opacity="1" data-original-color="#000000ff" stroke="none" stroke-opacity="1"/><path d="M47,20H17a1,1,0,0,0,0,2H47a1,1,0,0,0,0-2Z" fill="#77894d" fill-opacity="1" data-original-color="#000000ff" stroke="none" stroke-opacity="1"/><path d="M47,26H23a1,1,0,0,0,0,2H47a1,1,0,0,0,0-2Z" fill="#77894d" fill-opacity="1" data-original-color="#000000ff" stroke="none" stroke-opacity="1"/><path d="M47,32H29a1,1,0,0,0,0,2H47a1,1,0,0,0,0-2Z" fill="#77894d" fill-opacity="1" data-original-color="#000000ff" stroke="none" stroke-opacity="1"/><path d="M47,38H33a1,1,0,0,0,0,2H47a1,1,0,0,0,0-2Z" fill="#77894d" fill-opacity="1" data-original-color="#000000ff" stroke="none" stroke-opacity="1"/><path d="M13,46h5a1,1,0,0,0,0-2H13a1,1,0,0,0,0,2Z" fill="#77894d" fill-opacity="1" data-original-color="#000000ff" stroke="none" stroke-opacity="1"/><path d="M47,44H37a1,1,0,0,0,0,2H47a1,1,0,0,0,0-2Z" fill="#77894d" fill-opacity="1" data-original-color="#000000ff" stroke="none" stroke-opacity="1"/><path d="M27,50H13a1,1,0,0,0,0,2H27a1,1,0,0,0,0-2Z" fill="#77894d" fill-opacity="1" data-original-color="#000000ff" stroke="none" stroke-opacity="1"/></g></svg>