<svg version="1.1" id="Capa_1" xmlns="http://www.w3.org/2000/svg" xmlns:xlink="http://www.w3.org/1999/xlink" x="0px" y="0px" viewBox="0 0 512 512" style="enable-background:new 0 0 512 512;" xml:space="preserve" width="300" height="300" xmlns:svgjs="http://svgjs.dev/svgjs"><g width="100%" height="100%" transform="matrix(1,0,0,1,0,0)"><g>
	<g>
		<path d="M484.882,27.144C446.845-10.893,376-8.351,295.108,31.07c-1.705,0.347-3.275,1.136-4.569,2.261&#10;&#9;&#9;&#9;c-6.438,3.233-12.936,6.696-19.483,10.388c3.405-11.021,4.483-22.771,2.943-34.395c-0.594-4.481-4.119-8.006-8.599-8.599&#10;&#9;&#9;&#9;c-24.743-3.278-50.054,5.302-67.703,22.952l-25.638,25.638L75.79,3.098c-3.83-1.837-8.397-1.058-11.398,1.944L44.108,25.324&#10;&#9;&#9;&#9;c-2.038,2.038-3.098,4.856-2.907,7.732c0.19,2.875,1.613,5.529,3.902,7.281l77.01,58.923l-48.486,48.487l-38.054-3.429&#10;&#9;&#9;&#9;c-2.947-0.267-5.872,0.792-7.969,2.888L3.098,171.711c-2.519,2.519-3.507,6.188-2.596,9.63c0.912,3.443,3.586,6.142,7.021,7.084&#10;&#9;&#9;&#9;l27.471,7.536c-5.283,19.493-7.965,39.644-7.965,60.046c0,13.496,1.198,27.004,3.535,40.198&#10;&#9;&#9;&#9;c-12.33,25.548-21.139,50.443-26.073,73.966c-10.438,49.773-2.603,89.435,22.662,114.7c17.814,17.815,43.525,27.12,74.705,27.12&#10;&#9;&#9;&#9;c2.546,0,5.133-0.062,7.751-0.187c31.382-1.494,68.023-11.997,106.12-30.362c13.114,2.337,26.582,3.555,40.288,3.555&#10;&#9;&#9;&#9;c47.004,0,92.173-14.138,130.621-40.886c4.533-3.154,5.652-9.385,2.498-13.919c-3.154-4.534-9.387-5.651-13.919-2.498&#10;&#9;&#9;&#9;c-23.767,16.534-50.352,27.779-78.368,33.317v-22.007c0-22.404-18.228-40.631-40.632-40.631h-46.635&#10;&#9;&#9;&#9;c-11.375,0-20.631-9.255-20.632-20.632c-0.002-15.883-12.924-28.805-28.807-28.805h-14.855c-14.646,0-26.562-11.916-26.564-26.567&#10;&#9;&#9;&#9;c0-7.097,2.763-13.767,7.78-18.785c5.017-5.018,11.688-7.782,18.784-7.782h0.89c8.801,0,15.959-7.159,15.959-15.958&#10;&#9;&#9;&#9;c0-7.63,6.207-13.836,13.835-13.836h57.268c14.542,0,26.373,11.831,26.373,26.373v42.899c0,13.324,10.84,24.165,24.166,24.165&#10;&#9;&#9;&#9;h10.667c11.486,0,20.831,9.344,20.831,20.832v24.214c0,5.523,4.478,9.999,9.999,9.999c5.522,0,9.999-4.477,9.999-9.999v-24.214&#10;&#9;&#9;&#9;c0-22.514-18.316-40.831-40.83-40.831h-10.667c-2.298,0-4.167-1.869-4.167-4.166V292.38c0-25.57-20.803-46.371-46.371-46.371&#10;&#9;&#9;&#9;h-57.268c-17.319,0-31.641,13.082-33.604,29.883c-11.339,0.697-21.902,5.447-30.005,13.55&#10;&#9;&#9;&#9;c-8.795,8.795-13.638,20.489-13.637,32.931c0.001,25.674,20.89,46.56,46.562,46.56h14.855c4.856,0,8.809,3.952,8.809,8.808&#10;&#9;&#9;&#9;c0.001,22.403,18.228,40.63,40.631,40.63h46.635c11.377,0,20.633,9.255,20.633,20.632v24.615c0,0.117,0.014,0.231,0.018,0.348&#10;&#9;&#9;&#9;c-6.893,0.681-13.848,1.031-20.851,1.031c-98.986,0-184.306-69.467-204.519-165.8c8.405-16.755,18.351-33.796,29.655-50.746&#10;&#9;&#9;&#9;l5.144,18.751c0.942,3.435,3.641,6.11,7.084,7.021c0.847,0.224,1.706,0.333,2.559,0.333c2.618,0,5.172-1.029,7.072-2.929&#10;&#9;&#9;&#9;l24.507-24.506c2.097-2.097,3.154-5.016,2.889-7.969l-3.43-38.053l48.487-48.487l58.922,77.011&#10;&#9;&#9;&#9;c1.752,2.289,4.405,3.711,7.281,3.901c2.865,0.187,5.693-0.869,7.732-2.907l20.283-20.283c3.002-3.002,3.781-7.572,1.943-11.398&#10;&#9;&#9;&#9;l-46.215-96.27l18.382-18.382c18.737-12.801,37.287-23.759,55.31-32.813c44.329,9.279,82.977,32.355,111.794,64.208h-19.87&#10;&#9;&#9;&#9;c-30.92,0-56.076,25.156-56.076,56.076c0,3.923-3.191,7.115-7.115,7.115c-22.21,0-40.278,18.069-40.278,40.278v6.583&#10;&#9;&#9;&#9;c0,22.209,18.068,40.278,40.278,40.278h78.218c5.522,0,9.999-4.477,9.999-10c0-5.523-4.478-9.999-9.999-9.999h-78.218&#10;&#9;&#9;&#9;c-11.182,0-20.279-9.097-20.279-20.279v-6.583c0-11.182,9.097-20.279,20.279-20.279c14.95,0,27.114-12.163,27.114-27.114&#10;&#9;&#9;&#9;c0-19.893,16.184-36.077,36.077-36.077h28.962c2.096,0,4.04-0.648,5.647-1.75c24.892,34.598,39.371,76.924,39.371,122.081&#10;&#9;&#9;&#9;c0,34.579-8.618,68.832-24.921,99.06c-2.621,4.861-0.807,10.926,4.055,13.547c1.51,0.814,3.136,1.201,4.738,1.201&#10;&#9;&#9;&#9;c3.558,0,7.003-1.904,8.811-5.255c17.871-33.134,27.316-70.671,27.316-108.553c0-13.703-1.218-27.168-3.556-40.282&#10;&#9;&#9;&#9;c18.381-38.128,28.886-74.799,30.368-106.199C513.452,74.887,504.138,46.399,484.882,27.144z M184.328,473.496&#10;&#9;&#9;&#9;c-63.116,25.425-115.513,24.755-143.032-2.766c-25.594-25.593-23.496-66.578-17.23-96.453c3.091-14.734,7.97-30.332,14.451-46.424&#10;&#9;&#9;&#9;C61.398,397.359,116.201,451.032,184.328,473.496z M47.228,264.953c-0.126-2.98-0.198-5.964-0.198-8.947&#10;&#9;&#9;&#9;c0-18.61,2.442-36.986,7.252-54.755l15.058,4.131l4.901,17.863C64.308,237.18,55.288,251.118,47.228,264.953z M236.905,62.886&#10;&#9;&#9;&#9;l-6.711,6.711c-0.002,0.002-0.004,0.004-0.005,0.006l-23.932,23.932c-3.001,3.001-3.781,7.571-1.943,11.397l46.215,96.27&#10;&#9;&#9;&#9;l-7.199,7.199L184.41,131.39c-1.752-2.289-4.405-3.711-7.281-3.901c-2.87-0.19-5.693,0.868-7.732,2.907l-58.789,58.789&#10;&#9;&#9;&#9;c-0.503,0.375-0.974,0.799-1.403,1.27c-1.895,2.073-2.83,4.847-2.578,7.644l3.441,38.188l-9.035,9.035L87.121,194.6&#10;&#9;&#9;&#9;c-0.934-3.404-3.594-6.064-6.998-6.998L29.402,173.69l9.035-9.036l38.188,3.441c2.806,0.255,5.571-0.684,7.644-2.578&#10;&#9;&#9;&#9;c0.47-0.429,0.894-0.898,1.269-1.401l58.791-58.791c2.038-2.038,3.098-4.856,2.907-7.732c-0.19-2.875-1.613-5.529-3.902-7.281&#10;&#9;&#9;&#9;l-77.01-58.922l7.199-7.199l96.27,46.216c3.829,1.837,8.397,1.058,11.398-1.944l30.647-30.647&#10;&#9;&#9;&#9;c11.358-11.359,26.932-17.725,42.852-17.784C254.629,35.953,248.264,51.528,236.905,62.886z M473.501,184.329&#10;&#9;&#9;&#9;C451.023,116.184,397.309,61.35,327.773,38.483c62.141-24.988,115.094-25.072,142.967,2.803&#10;&#9;&#9;&#9;C498.258,68.803,498.928,121.21,473.501,184.329z" fill="#77894d" fill-opacity="1" data-original-color="#000000ff" stroke="none" stroke-opacity="1"/>
	</g>
</g><g>
	<g>
		<path d="M426.776,393.583c-4.171-3.732-10.408-3.348-14.203,0.874c-0.017,0.019-0.034,0.038-0.051,0.057&#10;&#9;&#9;&#9;c-3.762,4.252-3.432,10.493,0.753,14.21c1.918,1.703,4.265,2.54,6.609,2.54c2.774,0,5.545-1.172,7.592-3.468&#10;&#9;&#9;&#9;C431.253,403.559,430.947,397.316,426.776,393.583z" fill="#77894d" fill-opacity="1" data-original-color="#000000ff" stroke="none" stroke-opacity="1"/>
	</g>
</g><g>
</g><g>
</g><g>
</g><g>
</g><g>
</g><g>
</g><g>
</g><g>
</g><g>
</g><g>
</g><g>
</g><g>
</g><g>
</g><g>
</g><g>
</g></g></svg>